<svg width="36" height="35" fill="none" xmlns="http://www.w3.org/2000/svg"><path d="M.746 17.5C.746 27.165 8.565 35 18.21 35s17.463-7.835 17.463-17.5S27.855 0 18.21 0C8.565 0 .746 7.835.746 17.5z" fill="#1877F2"/><path d="M26.941 17.5c0-4.813-3.93-8.75-8.732-8.75s-8.731 3.938-8.731 8.75c0 4.375 3.165 7.984 7.312 8.64v-6.124h-2.182V17.5h2.182v-1.969c0-2.187 1.31-3.39 3.275-3.39.982 0 1.964.218 1.964.218v2.188h-1.091c-1.091 0-1.419.656-1.419 1.312V17.5h2.401l-.436 2.516H19.41v6.234a8.822 8.822 0 0 0 7.531-8.75z" fill="#fff"/></svg>