<svg width="33" height="32" fill="none" xmlns="http://www.w3.org/2000/svg"><path d="M.355 16c0 8.837 7.149 16 15.967 16 8.818 0 15.967-7.163 15.967-16S25.14 0 16.322 0C7.504 0 .355 7.163.355 16z" fill="#231E1B"/><path fill-rule="evenodd" clip-rule="evenodd" d="M16.298 8.192c-4.395 0-7.96 3.572-7.96 7.975 0 3.523 2.296 6.508 5.42 7.584.391.05.538-.195.538-.39v-1.37c-2.197.488-2.686-1.077-2.686-1.077-.341-.93-.879-1.175-.879-1.175-.732-.489.05-.489.05-.489.78.049 1.22.832 1.22.832.732 1.223 1.855.88 2.295.685.049-.538.293-.88.488-1.077-1.758-.195-3.613-.88-3.613-3.963 0-.88.293-1.566.83-2.153-.049-.147-.342-.978.098-2.055 0 0 .683-.196 2.197.832.635-.196 1.318-.245 2.002-.245a8.97 8.97 0 0 1 2.002.245c1.513-1.028 2.197-.832 2.197-.832.44 1.077.146 1.908.098 2.104.488.538.83 1.272.83 2.153 0 3.083-1.856 3.719-3.614 3.914.294.245.538.734.538 1.468v2.202c0 .196.146.44.537.392a7.983 7.983 0 0 0 5.42-7.585c-.05-4.403-3.614-7.975-8.008-7.975z" fill="#fff"/></svg>