<svg width="21" height="20" fill="none" xmlns="http://www.w3.org/2000/svg"><path d="M13.138 3.125a6.246 6.246 0 0 1 4.411 4.42M12.492 5.54a3.747 3.747 0 0 1 2.647 2.653M7.918 9.751a6.583 6.583 0 0 0 3.045 3.038.617.617 0 0 0 .61-.047l1.952-1.304a.623.623 0 0 1 .592-.055l3.651 1.569a.622.622 0 0 1 .375.648 3.753 3.753 0 0 1-1.24 2.34 3.738 3.738 0 0 1-2.473.935c-2.812 0-5.509-1.12-7.497-3.112A10.636 10.636 0 0 1 3.827 6.25c0-.912.332-1.793.934-2.478A3.74 3.74 0 0 1 7.096 2.53a.62.62 0 0 1 .646.375L9.31 6.567a.626.626 0 0 1-.052.589L7.96 9.14a.62.62 0 0 0-.042.61z" stroke="#000" stroke-width="2" stroke-linecap="round" stroke-linejoin="round"/></svg>