<svg width="40" height="40" fill="none" xmlns="http://www.w3.org/2000/svg"><path d="M11.25 15.625H5c-.69 0-1.25.56-1.25 1.25v6.25c0 .69.56 1.25 1.25 1.25h6.25c.69 0 1.25-.56 1.25-1.25v-6.25c0-.69-.56-1.25-1.25-1.25zm22.5-9.375h-7.5c-.69 0-1.25.56-1.25 1.25V15c0 .69.56 1.25 1.25 1.25h7.5c.69 0 1.25-.56 1.25-1.25V7.5c0-.69-.56-1.25-1.25-1.25zm0 17.5h-7.5c-.69 0-1.25.56-1.25 1.25v7.5c0 .69.56 1.25 1.25 1.25h7.5c.69 0 1.25-.56 1.25-1.25V25c0-.69-.56-1.25-1.25-1.25zM12.5 20h6.25M25 28.75h-2.5A3.75 3.75 0 0 1 18.75 25V15a3.75 3.75 0 0 1 3.75-3.75H25" stroke="#4580c2" stroke-width="2" stroke-linecap="round" stroke-linejoin="round"/></svg>