<svg width="40" height="40" fill="none" xmlns="http://www.w3.org/2000/svg"><path d="M31.25 8.75H8.75A3.75 3.75 0 0 0 5 12.5V30a3.75 3.75 0 0 0 3.75 3.75h22.5A3.75 3.75 0 0 0 35 30V12.5a3.75 3.75 0 0 0-3.75-3.75z" stroke="#4580c2" stroke-width="2" stroke-linecap="round" stroke-linejoin="round"/><path d="M14.375 22.5h11.25a3.125 3.125 0 1 1 0 6.25h-11.25a3.125 3.125 0 1 1 0-6.25zm8.75 0v6.25m-6.25-6.25v6.25M20 8.75V2.5" stroke="#4580c2" stroke-width="2" stroke-linecap="round" stroke-linejoin="round"/><path d="M13.125 18.75a1.875 1.875 0 1 0 0-3.75 1.875 1.875 0 0 0 0 3.75zm13.75 0a1.875 1.875 0 1 0 0-3.75 1.875 1.875 0 0 0 0 3.75z" fill="#4580c2"/></svg>