<svg width="40" height="40" fill="none" xmlns="http://www.w3.org/2000/svg"><path d="M24.375 15.625h-8.75v8.75h8.75v-8.75z" stroke="#4580c2" stroke-width="2" stroke-linecap="round" stroke-linejoin="round"/><path d="M31.25 7.5H8.75c-.69 0-1.25.56-1.25 1.25v22.5c0 .69.56 1.25 1.25 1.25h22.5c.69 0 1.25-.56 1.25-1.25V8.75c0-.69-.56-1.25-1.25-1.25zm1.25 8.75h3.75m-3.75 7.5h3.75m-32.5-7.5H7.5m-3.75 7.5H7.5m16.25 8.75v3.75m-7.5-3.75v3.75m7.5-32.5V7.5m-7.5-3.75V7.5" stroke="#4580c2" stroke-width="2" stroke-linecap="round" stroke-linejoin="round"/></svg>