<svg width="60" height="60" fill="none" xmlns="http://www.w3.org/2000/svg"><path d="M36.563 24.375a2.813 2.813 0 1 0 0-5.625 2.813 2.813 0 0 0 0 5.625zm-13.125 0a2.813 2.813 0 1 0 0-5.625 2.813 2.813 0 0 0 0 5.625z" fill="#4580c2"/><path d="M30 30v22.5M57.188 30H2.812m45.938 3.75a18.75 18.75 0 0 1-37.5 0v-7.5a18.75 18.75 0 0 1 37.5 0v7.5zm5.606 10.313l-6.736-3.89m6.736-24.235l-6.736 3.889M5.644 15.938l6.736 3.889M5.644 44.063l6.736-3.89" stroke="#4580c2" stroke-width="2" stroke-linecap="round" stroke-linejoin="round"/></svg>