<svg width="36" height="35" fill="none" xmlns="http://www.w3.org/2000/svg"><path d="M.55 17.5C.55 27.165 8.37 35 18.015 35s17.464-7.835 17.464-17.5S27.659 0 18.014 0C8.37 0 .551 7.835.551 17.5z" fill="red"/><path d="M26.31 13.234a2.164 2.164 0 0 0-1.529-1.53c-1.31-.329-6.876-.329-6.876-.329s-5.458 0-6.876.328A2.164 2.164 0 0 0 9.5 13.234c-.219 1.422-.219 4.266-.219 4.266s0 2.844.328 4.266a2.164 2.164 0 0 0 1.528 1.53c1.31.329 6.876.329 6.876.329s5.457 0 6.876-.328a2.164 2.164 0 0 0 1.528-1.531c.328-1.422.328-4.266.328-4.266s0-2.844-.437-4.266zm-10.042 6.891v-5.25l4.584 2.625-4.584 2.625z" fill="#fff"/></svg>